{"title":"True.Confessions.1981.BDRip.XviD.AC3.-HQCLUB","uid":12322696,"size":1591547182,"categoryP":"video","categoryS":"movies","magnet":"?xt=urn:btih:b4b4bfac91525c453c2135f5d11b148a8ba8a60a&amp;dn=True.Confessions.1981.BDRip.XviD.AC3.-HQCLUB&amp;tr=udp%3A%2F%2Ftracker.openbittorrent.com%3A80&amp;tr=udp%3A%2F%2Fopen.demonii.com%3A1337&amp;tr=udp%3A%2F%2Ftracker.coppersurfer.tk%3A6969&amp;tr=udp%3A%2F%2Fexodus.desync.com%3A6969","seeders":0,"leechers":0,"uploader":"nicukent","files":3,"time":1441069080,"description":" &lt;a href=&quot;http://i.imgur.com/4FJ3Xka.jpg&quot; rel=&quot;nofollow&quot; target=&quot;_NEW&quot;&gt;http://i.imgur.com/4FJ3Xka.jpg&lt;/a&gt; &lt;a href=&quot;\nhttp://www.imdb.com/title/tt0083232/&quot; rel=&quot;nofollow&quot; target=&quot;_NEW&quot;&gt;\nhttp://www.imdb.com/title/tt0083232/&lt;/a&gt;\n\n  General\n     Complete name : True.Confessions.1981.BDRip.XviD.AC3.-HQCLUB.avi\n     Format : AVI\n     Format/Info : Audio Video Interleave\n     File size : 1.45 GiB\n     Duration : 1h 48mn\n     Overall bit rate : 1 925 Kbps\n     Source: HDTracker / Blu-Ray Remux / 1080Ñ€\n     Comment : 31.08.2015\n\n  Video #0\n     ID : 0\n     Format : MPEG-4 Visual\n     Format profile : AdvancedSimple@L5\n     Format settings, BVOP : Yes\n     Format settings, QPel : No\n     Format settings, GMC : No warppoints\n     Format settings, Matrix : Custom\n     Codec ID : XVID\n     Codec ID/Hint : XviD\n     Duration : 1h 48mn\n     Bit rate : 1 723 Kbps\n     Width : 704 pixels\n     Height : 384 pixels\n     Display aspect ratio : 16:9\n     Frame rate : 23.976 fps\n     Resolution : 24 bits\n     Colorimetry : 4:2:0\n     Scan type : Progressive\n     Bits/(Pixel*Frame) : 0.266\n     Stream size : 1.30 GiB (90%)\n     Writing library : XviD 65\n\n  Audio #1\n     ID : 1\n     Format : AC-3\n     Format/Info : Audio Coding 3\n     Codec ID : 2000\n     Duration : 1h 48mn\n     Bit rate mode : Constant\n     Bit rate : 192 Kbps\n     Channel(s) : 2 channels\n     Channel positions : L R\n     Sampling rate : 48.0 KHz\n     Stream size : 148 MiB (10%)\n     Alignment : Split accross interleaves\n     Interleave, duration : 42 ms (1.00 video frame)\n     Interleave, preload duration : 500 ms\n &lt;a href=&quot;\nhttp://someimage.com/D112aoj&quot; rel=&quot;nofollow&quot; target=&quot;_NEW&quot;&gt;\nhttp://someimage.com/D112aoj&lt;/a&gt; &lt;a href=&quot;\nhttp://someimage.com/x6KBzNL&quot; rel=&quot;nofollow&quot; target=&quot;_NEW&quot;&gt;\nhttp://someimage.com/x6KBzNL&lt;/a&gt; &lt;a href=&quot;\nhttp://someimage.com/KZn54MC&quot; rel=&quot;nofollow&quot; target=&quot;_NEW&quot;&gt;\nhttp://someimage.com/KZn54MC&lt;/a&gt; &lt;a href=&quot;\nhttp://someimage.com/EBCymNB&quot; rel=&quot;nofollow&quot; target=&quot;_NEW&quot;&gt;\nhttp://someimage.com/EBCymNB&lt;/a&gt; &lt;a href=&quot;\nhttp://someimage.com/8XyOWZI&quot; rel=&quot;nofollow&quot; target=&quot;_NEW&quot;&gt;\nhttp://someimage.com/8XyOWZI&lt;/a&gt; &lt;a href=&quot;\nhttp://someimage.com/nC2Lr8W&quot; rel=&quot;nofollow&quot; target=&quot;_NEW&quot;&gt;\nhttp://someimage.com/nC2Lr8W&lt;/a&gt;\n\n\nFor more visit...: http://www.scenexpress.org","torrent":{"xt":"urn:btih:b4b4bfac91525c453c2135f5d11b148a8ba8a60a","amp;dn":"True.Confessions.1981.BDRip.XviD.AC3.-HQCLUB","amp;tr":["udp%3A%2F%2Ftracker.openbittorrent.com%3A80","udp%3A%2F%2Fopen.demonii.com%3A1337","udp%3A%2F%2Ftracker.coppersurfer.tk%3A6969","udp%3A%2F%2Fexodus.desync.com%3A6969"],"infoHash":"b4b4bfac91525c453c2135f5d11b148a8ba8a60a","infoHashBuffer":{"type":"Buffer","data":[180,180,191,172,145,82,92,69,60,33,53,245,209,27,20,138,139,168,166,10]},"announce":[],"urlList":[]}}